<svg width="301" height="300" viewBox="0 0 301 300" fill="none" xmlns="http://www.w3.org/2000/svg">
<path d="M15.7741 117.094C15.7741 117.094 -12.2822 161.264 7.65494 227.885C27.5921 294.506 85.6825 311.501 120.13 293.001C154.578 274.501 159.602 250.422 187.443 232.95C215.284 215.477 272.695 216.092 294.804 168.022C316.913 119.952 271.064 52.579 219.164 13.7773C167.263 -25.0244 54.441 20.8677 15.7741 117.094Z" fill="#464169"/>
<path opacity="0.7" d="M15.7741 117.094C15.7741 117.094 -12.2822 161.264 7.65494 227.885C27.5921 294.506 85.6825 311.501 120.13 293.001C154.578 274.501 159.602 250.422 187.443 232.95C215.284 215.477 272.695 216.092 294.804 168.022C316.913 119.952 271.064 52.579 219.164 13.7773C167.263 -25.0244 54.441 20.8677 15.7741 117.094Z" fill="white"/>
<path d="M194.362 212.409C196.846 213.538 202.904 213.393 202.911 213.393C202.918 213.393 201.607 209.255 201.489 209.002C200.163 206.107 195.937 201.311 192.537 201.766C191.97 201.863 191.43 202.082 190.95 202.411C190.471 202.739 190.063 203.169 189.753 203.673C189.444 204.176 189.239 204.743 189.153 205.334C189.067 205.925 189.102 206.529 189.254 207.106C189.823 209.609 192.252 211.447 194.362 212.409Z" fill="#263238"/>
<path d="M196.458 230.714C199.025 231.105 204.438 229.469 204.868 229.339C205.76 232.566 206.856 235.728 208.151 238.803C208.893 240.597 209.698 242.384 210.524 244.164C210.031 243.44 209.58 242.717 209.511 242.652C207.491 240.221 202.224 236.755 199.046 238.166C198.524 238.415 198.058 238.776 197.679 239.225C197.3 239.674 197.015 240.201 196.844 240.773C196.674 241.344 196.62 241.946 196.687 242.541C196.755 243.135 196.941 243.708 197.235 244.222C198.408 246.45 201.218 247.55 203.48 247.897C205.743 248.244 210.42 246.949 211.655 246.588C211.974 247.268 212.294 247.948 212.62 248.628C214.188 251.876 215.763 255.14 217.214 258.345C217.727 259.481 218.192 260.616 218.664 261.752C218.227 261.087 217.852 260.53 217.783 260.45C215.763 258.019 210.496 254.553 207.318 255.964C206.796 256.212 206.331 256.573 205.951 257.021C205.572 257.469 205.288 257.996 205.117 258.567C204.946 259.138 204.892 259.739 204.959 260.333C205.027 260.927 205.213 261.499 205.507 262.013C206.679 264.241 209.49 265.348 211.752 265.688C214.015 266.028 218.248 264.871 219.705 264.444C220.149 265.63 220.6 266.81 220.982 267.975C221.225 268.778 221.516 269.53 221.717 270.348C221.919 271.165 222.148 271.954 222.356 272.742C222.71 274.284 223.084 275.868 223.397 277.373C223.619 278.422 223.813 279.428 224.007 280.441C223.515 279.305 222.495 277.098 222.384 276.924C220.746 274.197 216.041 269.942 212.668 270.832C212.116 270.996 211.603 271.279 211.162 271.663C210.722 272.047 210.364 272.523 210.112 273.061C209.86 273.599 209.719 274.186 209.699 274.785C209.679 275.383 209.781 275.979 209.997 276.534C210.836 278.921 213.466 280.455 215.652 281.157C218.081 281.924 223.445 281.222 224.118 281.157C224.438 282.828 224.736 284.463 224.993 286.004C225.132 286.822 225.257 287.589 225.374 288.356H227.512C227.352 287.473 227.186 286.561 227.005 285.614C226.686 283.913 226.311 282.105 225.909 280.245C227.527 279.572 229.105 278.799 230.635 277.93C232.404 279.927 236.929 282.271 237.519 282.56C236.901 284.138 236.283 285.672 235.687 287.104C235.506 287.538 235.326 287.943 235.152 288.356H237.401L237.567 287.936C238.206 286.337 238.844 284.608 239.496 282.828C240.142 282.973 245.457 284.102 247.935 283.516C250.183 282.987 252.903 281.663 253.91 279.348C254.164 278.812 254.307 278.226 254.33 277.628C254.353 277.031 254.254 276.435 254.042 275.879C253.829 275.323 253.506 274.821 253.095 274.404C252.684 273.987 252.193 273.665 251.654 273.459C248.379 272.308 243.382 276.186 241.55 278.777C241.446 278.928 240.447 280.716 239.843 281.859C240.1 281.135 240.364 280.412 240.621 279.688C241.141 278.241 241.62 276.707 242.147 275.101C242.369 274.312 242.598 273.517 242.841 272.714C243.084 271.91 243.251 271.057 243.459 270.225C243.903 268.271 244.264 266.274 244.583 264.256C245.832 264.726 250.287 266.347 252.591 266.173C254.895 265.999 257.775 265.124 259.107 262.997C259.435 262.506 259.66 261.948 259.768 261.36C259.876 260.773 259.864 260.168 259.733 259.585C259.602 259.003 259.355 258.455 259.008 257.978C258.661 257.502 258.222 257.106 257.719 256.818C254.645 255.168 249.142 258.207 246.956 260.479C246.824 260.616 245.43 262.432 244.68 263.438C244.867 262.223 245.055 261.014 245.201 259.777C245.624 256.203 245.95 252.578 246.29 248.961C246.394 247.854 246.505 246.747 246.616 245.647C247.06 245.821 252.32 247.861 254.902 247.673C257.199 247.499 260.086 246.624 261.411 244.489C261.74 243.999 261.966 243.441 262.075 242.853C262.183 242.265 262.171 241.66 262.04 241.077C261.909 240.494 261.662 239.946 261.315 239.47C260.967 238.993 260.527 238.598 260.023 238.311C256.956 236.661 251.453 239.707 249.267 241.972C249.101 242.145 247.102 244.757 246.623 245.445C246.873 243.014 247.137 240.59 247.498 238.209C247.961 234.996 248.627 231.818 249.489 228.695C249.69 228.782 255.166 230.931 257.817 230.743C260.114 230.569 262.993 229.694 264.326 227.559C264.655 227.069 264.881 226.511 264.989 225.923C265.098 225.335 265.086 224.73 264.955 224.147C264.824 223.564 264.577 223.016 264.229 222.54C263.882 222.063 263.442 221.668 262.938 221.381C259.871 219.731 254.368 222.777 252.182 225.042C252.008 225.222 249.857 228.03 249.503 228.572C249.552 228.391 249.586 228.196 249.642 228.015C250.589 224.909 251.799 221.897 253.257 219.015C254.041 217.416 254.874 215.933 255.721 214.5C256.706 215.014 261.21 217.293 263.611 217.394C266.012 217.495 268.871 216.946 270.419 214.985C270.798 214.536 271.083 214.01 271.255 213.439C271.427 212.869 271.482 212.267 271.417 211.673C271.351 211.079 271.167 210.506 270.875 209.991C270.584 209.476 270.192 209.03 269.725 208.683C266.845 206.693 261.057 209.088 258.622 211.092C258.49 211.201 257.275 212.46 256.408 213.393C256.796 212.756 257.185 212.091 257.574 211.483C259.017 209.218 260.474 207.236 261.779 205.485C262.528 204.501 263.222 203.626 263.861 202.808C265.075 202.808 269.961 202.635 272.098 201.585C274.235 200.536 276.567 198.691 277.074 196.174C277.21 195.593 277.228 194.988 277.126 194.4C277.025 193.811 276.805 193.252 276.483 192.757C276.16 192.263 275.742 191.844 275.254 191.529C274.766 191.214 274.221 191.009 273.652 190.928C270.224 190.545 266.144 195.45 264.888 198.388C264.777 198.641 263.5 202.815 263.583 202.815H263.66C263.007 203.582 262.32 204.414 261.578 205.34C260.232 207.062 258.733 209.016 257.234 211.259C255.596 213.66 254.092 216.158 252.73 218.74C251.194 221.625 249.907 224.646 248.885 227.769C248.885 227.805 248.885 227.849 248.885 227.885C248.885 226.829 248.885 223.877 248.83 223.652C248.434 220.462 245.874 214.543 242.473 213.892C241.907 213.8 241.328 213.834 240.774 213.99C240.22 214.147 239.705 214.423 239.26 214.801C238.816 215.179 238.453 215.651 238.194 216.185C237.936 216.719 237.789 217.303 237.761 217.901C237.567 220.433 239.323 222.965 241.044 224.571C242.98 226.373 248.358 228.116 248.788 228.254C247.824 231.459 247.064 234.726 246.512 238.036C246.186 239.968 245.908 241.914 245.659 243.874C245.659 242.963 245.659 242.145 245.617 242.037C245.214 238.846 242.654 232.928 239.26 232.269C238.693 232.176 238.113 232.209 237.559 232.365C237.005 232.521 236.488 232.797 236.043 233.175C235.597 233.553 235.234 234.025 234.975 234.56C234.716 235.094 234.569 235.68 234.542 236.278C234.347 238.81 236.11 241.342 237.824 242.948C239.538 244.555 244.125 246.161 245.332 246.566C245.249 247.289 245.152 248.071 245.062 248.823C244.645 252.441 244.25 256.058 243.757 259.575C243.584 260.812 243.369 262.035 243.153 263.25C243.153 262.44 243.153 261.76 243.112 261.651C242.716 258.468 240.156 252.549 236.762 251.891C236.195 251.798 235.615 251.83 235.061 251.986C234.506 252.142 233.99 252.419 233.544 252.797C233.099 253.175 232.735 253.647 232.477 254.181C232.218 254.716 232.07 255.301 232.043 255.899C231.849 258.431 233.605 260.964 235.326 262.57C237.047 264.176 241.183 265.623 242.619 266.108C242.369 267.345 242.119 268.59 241.821 269.783C241.599 270.594 241.439 271.382 241.176 272.185C240.912 272.988 240.683 273.77 240.44 274.551C239.92 276.042 239.392 277.576 238.851 279.015C238.483 280.014 238.115 280.962 237.748 281.909C237.935 280.679 238.247 278.248 238.254 278.046C238.218 275.218 237.484 272.447 236.124 270C236.136 269.683 236.118 269.366 236.068 269.053C235.998 268.458 235.808 267.887 235.511 267.374C235.215 266.862 234.818 266.42 234.346 266.079C233.874 265.737 233.339 265.504 232.775 265.393C232.211 265.282 231.63 265.296 231.072 265.435C227.734 266.361 225.617 272.468 225.458 275.68C225.458 275.868 225.569 277.937 225.666 279.24C225.499 278.48 225.34 277.742 225.159 276.968C224.812 275.427 224.417 273.9 224 272.258C223.771 271.476 223.542 270.68 223.306 269.877C223.071 269.074 222.765 268.264 222.495 267.446C221.835 265.565 221.107 263.691 220.281 261.818C221.572 261.499 226.145 260.284 227.977 258.815C229.809 257.346 231.745 254.959 231.724 252.419C231.738 251.823 231.631 251.23 231.41 250.679C231.19 250.129 230.861 249.633 230.445 249.224C230.029 248.814 229.535 248.501 228.995 248.303C228.455 248.106 227.881 248.029 227.311 248.078C223.876 248.469 220.898 254.17 220.274 257.317C220.239 257.513 220.031 259.828 219.941 261.101C219.455 259.98 218.969 258.858 218.435 257.744C216.901 254.517 215.257 251.312 213.619 248.1C213.119 247.116 212.634 246.125 212.141 245.141C212.606 245.032 218.067 243.694 220.121 242.066C221.953 240.619 223.889 238.209 223.869 235.67C223.882 235.074 223.775 234.481 223.555 233.93C223.335 233.38 223.006 232.884 222.589 232.474C222.173 232.065 221.679 231.751 221.139 231.554C220.599 231.357 220.025 231.28 219.455 231.329C216.027 231.72 213.043 237.421 212.418 240.568C212.377 240.807 212.085 244.135 212.051 244.981C210.968 242.811 209.913 240.64 208.956 238.47C207.64 235.524 206.514 232.491 205.583 229.39C205.798 229.339 211.502 227.986 213.612 226.308C215.437 224.861 217.38 222.451 217.359 219.912C217.372 219.316 217.264 218.724 217.044 218.174C216.823 217.624 216.494 217.128 216.078 216.719C215.662 216.31 215.168 215.996 214.629 215.798C214.089 215.601 213.516 215.523 212.946 215.571C209.511 215.954 206.534 221.663 205.909 224.81C205.861 225.056 205.555 228.637 205.541 229.289C205.486 229.108 205.417 228.927 205.361 228.746C204.509 225.613 203.924 222.407 203.612 219.167C203.425 217.38 203.335 215.658 203.286 213.979C204.376 213.842 209.337 213.154 211.391 211.852C213.445 210.55 215.555 208.459 215.791 205.927C215.87 205.334 215.829 204.731 215.669 204.156C215.51 203.581 215.236 203.048 214.865 202.591C214.494 202.134 214.035 201.764 213.518 201.505C213.001 201.246 212.437 201.103 211.863 201.086C208.394 201.086 204.847 206.404 203.897 209.464C203.848 209.631 203.501 211.382 203.265 212.662C203.265 211.903 203.231 211.121 203.231 210.398C203.231 207.677 203.404 205.181 203.564 202.975C203.668 201.723 203.786 200.587 203.904 199.531C204.903 198.807 208.9 195.913 210.149 193.779C211.398 191.644 212.328 188.765 211.433 186.399C211.241 185.835 210.937 185.32 210.541 184.887C210.145 184.454 209.666 184.113 209.135 183.885C208.604 183.658 208.033 183.55 207.459 183.568C206.886 183.586 206.322 183.73 205.805 183.99C202.738 185.647 201.933 192.086 202.439 195.255C202.481 195.53 203.64 199.733 203.696 199.697L203.751 199.654C203.619 200.667 203.487 201.759 203.362 202.953C203.154 205.16 202.932 207.656 202.877 210.391C202.778 213.334 202.845 216.282 203.078 219.217C203.32 222.508 203.845 225.77 204.646 228.963C204.656 229.002 204.667 229.041 204.681 229.079C204.133 228.189 202.537 225.751 202.391 225.577C200.378 223.146 195.104 219.688 191.926 221.091C191.404 221.34 190.938 221.701 190.559 222.15C190.18 222.599 189.895 223.127 189.725 223.698C189.554 224.269 189.5 224.871 189.567 225.466C189.635 226.06 189.821 226.633 190.115 227.147C191.371 229.267 194.181 230.367 196.458 230.714Z" fill="#263238"/>
<path d="M255.679 213.784C255.735 213.82 256.783 209.58 256.817 209.305C257.248 206.122 256.269 199.704 253.16 198.142C252.637 197.898 252.071 197.772 251.499 197.771C250.926 197.771 250.36 197.896 249.836 198.138C249.313 198.38 248.844 198.734 248.46 199.177C248.076 199.62 247.786 200.142 247.609 200.71C246.776 203.098 247.831 206.028 249.08 208.046C250.544 210.427 255.679 213.784 255.679 213.784Z" fill="#263238"/>
<path d="M119.506 147.945C119.506 147.945 74.961 148.56 73.5731 151.866C72.1852 155.172 65.8495 195.219 65.4539 209.023C65.0584 222.828 64.8641 231.937 66.245 233.586C67.626 235.236 89.2147 248.245 89.2147 248.245C89.2147 248.245 79.1178 285.194 82.2752 286.439C85.4327 287.683 104.849 292.834 117.32 293.044C129.79 293.254 142.073 293.247 143.065 293.247C144.057 293.247 175.931 294.484 187.02 291.8C198.109 289.115 201.468 288.906 201.468 284.369C201.468 279.833 198.692 274.24 198.498 273.227C198.303 272.214 206.027 193.952 201.669 174.758C197.311 155.563 191.572 148.125 187.214 146.888C182.856 145.651 151.774 146.476 151.774 146.476L119.506 147.945Z" fill="#464169"/>
<path d="M160.157 293.934C155.3 293.934 149.88 293.854 144.037 293.681H143.072C140.852 293.681 129.193 293.681 117.327 293.478C104.648 293.268 85.2455 288.052 82.1644 286.844C81.4704 286.583 79.8951 285.961 84.2462 266.868C86.1476 258.46 88.4099 250.089 88.8263 248.49C86.3627 247.007 67.3486 235.503 66.0092 233.897C64.545 232.154 64.7115 223.768 65.1279 209.088C65.5304 195.103 71.9702 154.89 73.2749 151.772C74.6628 148.422 112.032 147.735 119.52 147.633L151.788 146.186C153.065 146.15 183.016 145.376 187.332 146.613C190.011 147.337 196.791 151.634 202.037 174.743C205.625 190.559 201.114 245.459 199.414 266.122C199.088 270.094 198.852 272.967 198.873 273.249C199.029 273.753 199.209 274.248 199.414 274.732C200.261 276.903 201.843 280.983 201.843 284.442C201.843 288.783 199.018 289.419 190.622 291.394L187.152 292.227C182.364 293.37 173.002 293.934 160.157 293.934ZM171.503 146.613C162.073 146.613 151.969 146.874 151.788 146.881L119.52 148.328C102.379 148.567 74.8432 149.775 73.8994 152.032C72.6017 155.122 66.2105 195.146 65.808 209.081C65.461 221.258 65.1557 231.777 66.5019 233.398C67.6053 234.715 83.3926 244.366 89.4022 247.977C89.4691 248.017 89.5211 248.08 89.55 248.154C89.5789 248.229 89.5831 248.312 89.5618 248.389C84.6279 266.397 80.6099 285.411 82.4072 286.135C85.4675 287.328 104.738 292.509 117.334 292.719C129.207 292.914 140.852 292.921 143.072 292.921H144.058C165.23 293.543 180.462 293.03 186.944 291.474C188.214 291.163 189.379 290.895 190.448 290.642C198.651 288.71 201.128 288.124 201.128 284.391C201.128 281.077 199.58 277.091 198.748 274.949C198.521 274.417 198.327 273.871 198.165 273.314C198.13 273.104 198.227 271.831 198.706 266.007C200.399 245.372 204.903 190.566 201.336 174.845C196.18 152.112 189.685 147.973 187.131 147.243C185.306 146.765 178.595 146.613 171.503 146.613Z" fill="#263238"/>
<path d="M138.603 167.364C138.535 167.365 138.469 167.345 138.412 167.306C138.355 167.267 138.31 167.212 138.284 167.147C138.266 167.103 138.256 167.056 138.255 167.008C138.254 166.96 138.262 166.913 138.279 166.869C138.296 166.824 138.321 166.784 138.353 166.749C138.384 166.715 138.422 166.688 138.464 166.669C140.042 165.966 141.577 165.162 143.058 164.26C143.098 164.236 143.142 164.221 143.187 164.214C143.232 164.208 143.278 164.212 143.323 164.224C143.367 164.236 143.408 164.258 143.444 164.287C143.481 164.316 143.511 164.352 143.534 164.394C143.556 164.435 143.571 164.48 143.577 164.528C143.583 164.575 143.58 164.623 143.568 164.669C143.556 164.715 143.536 164.758 143.508 164.796C143.48 164.834 143.445 164.865 143.405 164.889C141.899 165.805 140.339 166.621 138.735 167.335C138.694 167.355 138.649 167.365 138.603 167.364Z" fill="#263238"/>
<path d="M145.327 163.587C145.27 163.586 145.214 163.572 145.163 163.544C145.113 163.516 145.069 163.476 145.036 163.428C144.986 163.347 144.969 163.249 144.989 163.156C145.008 163.062 145.063 162.98 145.14 162.928C150.656 159.098 155.499 154.306 159.456 148.762C159.482 148.723 159.516 148.69 159.555 148.664C159.593 148.639 159.637 148.621 159.682 148.613C159.727 148.605 159.773 148.606 159.818 148.617C159.862 148.628 159.905 148.648 159.942 148.675C159.979 148.702 160.011 148.736 160.035 148.776C160.06 148.816 160.076 148.86 160.084 148.907C160.092 148.953 160.091 149.001 160.081 149.047C160.07 149.093 160.052 149.136 160.025 149.175C156.015 154.79 151.109 159.646 145.522 163.529C145.464 163.569 145.396 163.589 145.327 163.587Z" fill="#263238"/>
<path d="M149.408 165.613C149.345 165.612 149.284 165.594 149.231 165.561C149.177 165.528 149.133 165.481 149.102 165.425C149.08 165.383 149.067 165.337 149.062 165.289C149.057 165.242 149.061 165.194 149.074 165.148C149.087 165.103 149.108 165.06 149.137 165.023C149.166 164.986 149.201 164.955 149.241 164.933C152.711 162.994 156.771 157.082 156.812 157.025C156.837 156.981 156.87 156.944 156.909 156.915C156.948 156.886 156.992 156.865 157.039 156.855C157.086 156.845 157.135 156.845 157.182 156.855C157.229 156.865 157.274 156.886 157.313 156.915C157.352 156.944 157.385 156.981 157.409 157.024C157.434 157.068 157.449 157.116 157.455 157.165C157.461 157.215 157.457 157.266 157.443 157.314C157.429 157.362 157.406 157.406 157.374 157.444C157.208 157.69 153.211 163.551 149.567 165.569C149.519 165.598 149.464 165.613 149.408 165.613Z" fill="#263238"/>
<path d="M128.791 223.739C128.718 223.738 128.647 223.713 128.588 223.668C128.53 223.622 128.486 223.559 128.465 223.486L127.299 219.709C127.284 219.664 127.277 219.616 127.28 219.569C127.284 219.521 127.296 219.475 127.317 219.432C127.337 219.39 127.366 219.352 127.401 219.321C127.436 219.29 127.477 219.267 127.521 219.253C127.608 219.224 127.703 219.232 127.785 219.275C127.867 219.318 127.929 219.394 127.958 219.485L129.124 223.262C129.152 223.353 129.145 223.452 129.103 223.538C129.062 223.623 128.989 223.688 128.902 223.718C128.866 223.732 128.829 223.739 128.791 223.739Z" fill="#263238"/>
<path d="M135.147 244.316C135.074 244.316 135.003 244.291 134.944 244.246C134.885 244.2 134.842 244.136 134.821 244.063L129.658 227.357C129.63 227.261 129.639 227.157 129.684 227.068C129.729 226.979 129.806 226.913 129.898 226.883C129.99 226.853 130.089 226.863 130.174 226.91C130.26 226.956 130.324 227.037 130.352 227.133L135.515 243.846C135.542 243.937 135.533 244.035 135.492 244.12C135.451 244.205 135.379 244.27 135.293 244.301L135.147 244.316Z" fill="#263238"/>
<path d="M136.736 244.728C136.67 244.731 136.604 244.711 136.549 244.67C136.51 244.645 136.477 244.612 136.45 244.574C136.423 244.535 136.404 244.491 136.394 244.445C136.384 244.398 136.382 244.35 136.39 244.303C136.397 244.256 136.414 244.212 136.438 244.171L141.587 235.713C141.611 235.672 141.642 235.636 141.679 235.608C141.716 235.58 141.758 235.56 141.803 235.549C141.848 235.538 141.894 235.537 141.939 235.545C141.984 235.553 142.028 235.571 142.066 235.598C142.143 235.65 142.197 235.731 142.218 235.824C142.239 235.917 142.224 236.015 142.177 236.097L137.028 244.562C136.996 244.612 136.953 244.654 136.902 244.683C136.851 244.712 136.794 244.727 136.736 244.728Z" fill="#263238"/>
<path d="M148.416 239.772C148.348 239.775 148.281 239.756 148.223 239.719C148.166 239.681 148.12 239.627 148.093 239.562C148.065 239.498 148.057 239.426 148.069 239.356C148.08 239.287 148.112 239.223 148.159 239.172L160.65 224.513C160.711 224.441 160.798 224.398 160.89 224.393C160.983 224.387 161.074 224.42 161.143 224.484C161.212 224.549 161.253 224.639 161.258 224.735C161.264 224.832 161.232 224.926 161.17 224.998L148.679 239.656C148.646 239.695 148.605 239.725 148.56 239.745C148.514 239.765 148.465 239.774 148.416 239.772Z" fill="#263238"/>
<path d="M143.072 293.652H142.975L116.098 285.483C116.055 285.47 116.014 285.448 115.978 285.418C115.943 285.389 115.913 285.352 115.891 285.31C115.869 285.268 115.855 285.223 115.851 285.175C115.846 285.128 115.85 285.08 115.862 285.035C115.874 284.989 115.895 284.946 115.923 284.908C115.952 284.87 115.987 284.839 116.027 284.816C116.067 284.793 116.112 284.779 116.157 284.774C116.203 284.77 116.249 284.775 116.293 284.789L143.162 292.943C143.254 292.956 143.337 293.007 143.393 293.085C143.449 293.162 143.474 293.259 143.461 293.355C143.448 293.451 143.399 293.538 143.325 293.596C143.251 293.655 143.157 293.68 143.065 293.666L143.072 293.652Z" fill="#263238"/>
<path d="M113.031 284.528H112.934L108.326 283.125C108.234 283.098 108.156 283.034 108.109 282.947C108.062 282.86 108.051 282.758 108.076 282.662C108.102 282.566 108.163 282.484 108.247 282.436C108.33 282.387 108.428 282.374 108.52 282.401L113.128 283.805C113.172 283.818 113.213 283.84 113.248 283.87C113.284 283.9 113.313 283.937 113.335 283.978C113.357 284.02 113.371 284.066 113.376 284.113C113.381 284.16 113.377 284.208 113.364 284.253C113.346 284.331 113.303 284.401 113.243 284.45C113.182 284.5 113.108 284.528 113.031 284.528Z" fill="#263238"/>
<path d="M119.228 56.153C119.228 56.153 105.245 52.8032 102.573 56.551C99.9016 60.2987 105.224 63.8439 104.468 64.6326C103.711 65.4212 87.4522 74.0888 88.7707 82.5683C90.0892 91.0478 101.061 99.7155 101.442 102.103C101.824 104.491 88.7707 105.258 87.0705 108.803C85.3703 112.348 82.9068 129.104 97.0911 134.625C111.275 140.145 129.013 130.877 133.954 130.877C138.895 130.877 143.787 140.934 149.457 140.34C152.91 139.928 156.087 138.168 158.346 135.413C158.346 135.413 164.203 143.893 172.711 140.34C181.219 136.788 191.052 124.373 186.895 120.632C182.738 116.892 178.006 115.705 181.031 112.355C184.057 109.005 190.295 100.135 189.359 92.4442C188.422 84.7533 179.713 84.1673 176.312 81.8014C172.912 79.4355 180.094 75.4924 179.907 68.9881C179.72 62.4837 175.174 51.6239 152.114 44.3888C129.054 37.1537 117.708 40.641 116.57 46.7547C116.215 48.4277 116.272 50.1675 116.737 51.8112C117.202 53.4549 118.059 54.9488 119.228 56.153Z" fill="#263238"/>
<path d="M168.602 141.542C163.197 141.542 159.38 137.251 158.36 135.963C156.065 138.619 152.918 140.307 149.512 140.709C146.354 141.042 143.495 138.3 140.74 135.645C138.381 133.373 136.147 131.232 133.974 131.232C132.649 131.232 130.269 131.955 127.257 132.881C119.311 135.305 107.299 138.966 96.9939 134.958C92.0669 133.04 88.6665 129.633 86.8345 124.828C84.4057 118.375 85.5993 111.082 86.779 108.636C87.7505 106.618 91.8865 105.489 95.5366 104.498C98.0834 103.774 101.248 102.942 101.088 102.154C100.929 101.365 99.5199 99.8023 97.8336 97.9067C94.4402 94.0794 89.305 88.2986 88.4237 82.6407C87.2648 75.2248 98.6594 67.9607 102.955 65.2259C103.552 64.8424 104.121 64.5024 104.211 64.3866C103.986 63.9899 103.73 63.6125 103.448 63.2579C102.296 61.6952 100.367 59.0688 102.289 56.3484C104.62 53.0492 114.78 54.9014 118.194 55.5743C117.251 54.3333 116.586 52.888 116.249 51.3444C115.912 49.8007 115.91 48.1979 116.244 46.6534C116.452 45.7225 116.848 44.8485 117.405 44.0898C117.963 43.3312 118.67 42.7055 119.478 42.2545C125.258 38.637 137.201 39.2592 152.225 44.0126C176.208 51.595 180.087 62.9107 180.268 68.9881C180.358 72.2584 178.679 74.8702 177.325 76.9467C176.402 78.3937 175.611 79.6092 175.778 80.4991C175.831 80.7071 175.924 80.9017 176.052 81.0708C176.18 81.24 176.339 81.3803 176.52 81.4831C177.679 82.1807 178.905 82.7482 180.178 83.1761C184.112 84.6955 189.005 86.5911 189.712 92.3864C190.642 99.947 184.855 108.644 181.302 112.587C181.04 112.813 180.828 113.096 180.681 113.415C180.533 113.735 180.454 114.084 180.448 114.439C180.559 115.495 181.926 116.457 183.661 117.666C184.868 118.485 186.027 119.379 187.131 120.343C187.601 120.809 187.944 121.397 188.125 122.046C188.305 122.696 188.317 123.384 188.158 124.04C187.284 129.481 179.56 137.866 172.856 140.681C171.504 141.247 170.06 141.539 168.602 141.542ZM158.367 135.03C158.42 135.031 158.473 135.045 158.52 135.071C158.567 135.098 158.607 135.136 158.637 135.182C158.7 135.261 164.446 143.386 172.6 139.986C179.123 137.266 186.631 129.133 187.471 123.917C187.686 122.571 187.422 121.551 186.68 120.885C185.595 119.947 184.457 119.077 183.273 118.281C181.392 116.964 179.907 115.922 179.754 114.54C179.747 114.079 179.837 113.621 180.018 113.2C180.199 112.778 180.467 112.404 180.802 112.102C184.036 108.484 189.928 99.8023 189.025 92.4877C188.366 87.1337 183.689 85.3249 179.935 83.8707C178.611 83.424 177.336 82.8322 176.132 82.1053C175.875 81.9492 175.651 81.7406 175.473 81.4919C175.295 81.2432 175.168 80.9597 175.098 80.6583C174.876 79.479 175.702 78.1912 176.749 76.5633C178.047 74.5519 179.657 72.0486 179.574 69.0098C179.4 63.1277 175.597 52.1593 152.024 44.7072C137.187 40.0116 125.453 39.346 119.839 42.8767C119.114 43.2758 118.479 43.8313 117.977 44.5062C117.474 45.1811 117.115 45.96 116.924 46.7909C116.575 48.4099 116.625 50.0944 117.068 51.6882C117.51 53.2819 118.332 54.7331 119.457 55.9071C119.515 55.9615 119.554 56.0339 119.569 56.1134C119.584 56.1929 119.574 56.2753 119.54 56.3484C119.505 56.4206 119.448 56.4784 119.377 56.5125C119.307 56.5466 119.227 56.5551 119.152 56.5366C115.321 55.6177 104.933 53.8813 102.872 56.7898C101.262 59.0761 102.872 61.2466 104.024 62.8383C104.718 63.7572 105.196 64.43 104.718 64.9148C104.278 65.2661 103.814 65.5829 103.33 65.8626C99.5477 68.2719 88.0628 75.601 89.1246 82.5394C89.9712 87.9802 95.0162 93.667 98.361 97.4292C100.339 99.6576 101.643 101.126 101.789 102.052C102.018 103.499 99.3672 104.223 95.7032 105.214C92.3653 106.119 88.2155 107.247 87.3758 108.976C86.2794 111.263 85.1274 118.418 87.4521 124.575C88.2992 126.839 89.6117 128.883 91.2973 130.561C92.983 132.24 95.0008 133.513 97.209 134.292C107.299 138.221 119.173 134.596 127.049 132.201C130.116 131.268 132.531 130.522 133.988 130.522C136.431 130.522 138.763 132.758 141.226 135.124C143.87 137.664 146.604 140.283 149.456 139.986C152.812 139.575 155.898 137.866 158.103 135.196C158.132 135.15 158.171 135.11 158.217 135.082C158.262 135.053 158.314 135.035 158.367 135.03Z" fill="#263238"/>
<path d="M121.747 119.395C121.747 119.395 117.021 150.144 116.834 151.128C116.647 152.112 125.161 160.982 136.681 159.405C143.429 158.559 149.63 155.117 154.071 149.753L150.484 119.199C150.484 119.199 140.65 124.127 134.599 123.931C128.548 123.736 121.747 119.395 121.747 119.395Z" fill="#FEBFA0"/>
<path d="M133.961 159.955C127.769 159.849 121.856 157.258 117.452 152.72C116.39 151.54 116.466 151.164 116.494 151.019C116.674 150.057 121.352 119.612 121.4 119.301C121.41 119.242 121.434 119.187 121.469 119.14C121.503 119.093 121.549 119.056 121.6 119.031C121.652 119.006 121.709 118.994 121.766 118.997C121.823 119 121.878 119.018 121.927 119.048C121.997 119.091 128.728 123.338 134.613 123.533C140.498 123.729 150.234 118.888 150.331 118.838C150.38 118.811 150.435 118.797 150.49 118.797C150.546 118.797 150.601 118.811 150.65 118.838C150.697 118.866 150.738 118.906 150.768 118.954C150.798 119.002 150.817 119.056 150.824 119.113L154.418 149.659C154.424 149.706 154.421 149.754 154.409 149.8C154.397 149.846 154.377 149.889 154.349 149.927C149.836 155.347 143.56 158.836 136.729 159.723C135.812 159.864 134.887 159.941 133.961 159.955ZM122.011 119.974C121.365 124.163 117.347 150.281 117.153 151.2C117.299 152.097 125.363 160.606 136.584 159.05C143.181 158.182 149.25 154.839 153.655 149.645L150.199 119.728C148.2 120.69 140.005 124.459 134.592 124.286C129.339 124.119 123.628 120.943 122.011 119.974Z" fill="#263238"/>
<path d="M119.804 135.891L139.713 131.875L121.747 119.395L119.804 135.891Z" fill="#263238"/>
<path d="M119.804 136.253C119.717 136.25 119.634 136.217 119.568 136.159C119.529 136.118 119.5 136.069 119.482 136.016C119.464 135.962 119.458 135.904 119.464 135.847L121.4 119.351C121.407 119.29 121.43 119.232 121.465 119.183C121.5 119.133 121.547 119.094 121.601 119.069C121.654 119.041 121.712 119.026 121.771 119.026C121.831 119.026 121.889 119.041 121.941 119.069L139.901 131.557C139.959 131.595 140.005 131.651 140.032 131.717C140.059 131.783 140.067 131.856 140.053 131.926C140.039 131.997 140.005 132.061 139.956 132.111C139.907 132.162 139.844 132.195 139.776 132.208L119.873 136.224L119.804 136.253ZM122.025 120.024L120.206 135.442L138.811 131.687L122.025 120.024Z" fill="#263238"/>
<path d="M111.241 92.2852C111.241 92.2852 107.91 87.8862 106.383 93.4428C104.856 98.9993 111.49 105.742 111.49 105.742L111.241 92.2852Z" fill="#FEBFA0"/>
<path d="M111.463 106.075C111.381 106.071 111.302 106.038 111.241 105.981C110.963 105.699 104.447 99.0499 106.043 93.3487C106.55 91.5399 107.313 90.5198 108.312 90.3172C109.936 89.9916 111.47 91.9813 111.532 92.0681C111.581 92.1292 111.608 92.2058 111.608 92.2852L111.83 105.713C111.83 105.785 111.811 105.855 111.774 105.915C111.737 105.975 111.684 106.023 111.622 106.054C111.57 106.069 111.517 106.076 111.463 106.075ZM108.687 90.9973C108.608 90.9898 108.529 90.9898 108.451 90.9973C107.757 91.142 107.139 92.0175 106.716 93.5224C105.516 97.82 109.547 102.971 111.13 104.773L110.921 92.3937C110.498 91.9306 109.54 90.9973 108.659 90.9973H108.687Z" fill="#263238"/>
<path d="M158.963 92.2852C158.963 92.2852 162.294 87.8862 163.821 93.4428C165.348 98.9993 158.714 105.742 158.714 105.742L158.963 92.2852Z" fill="#FEBFA0"/>
<path d="M158.741 106.075C158.696 106.083 158.649 106.083 158.603 106.075C158.539 106.047 158.485 106 158.448 105.939C158.411 105.878 158.392 105.807 158.395 105.735L158.617 92.3068C158.618 92.2289 158.643 92.1533 158.686 92.0898C158.755 92.003 160.296 90.0061 161.906 90.3389C162.912 90.5415 163.675 91.5616 164.182 93.3704C165.771 99.0716 159.255 105.721 158.977 106.003C158.91 106.057 158.826 106.083 158.741 106.075ZM159.304 92.4154L159.123 104.795C160.698 102.993 164.737 97.8417 163.537 93.544C163.113 92.0391 162.51 91.1637 161.795 91.019C160.837 90.8309 159.741 91.8872 159.304 92.4154Z" fill="#263238"/>
<path d="M121.705 64.4879C121.705 64.4879 112.171 74.1467 110.79 77.0408C109.409 79.9348 109.964 112.912 111.484 116.11C113.003 119.308 128.201 131.673 130.685 132.679C133.169 133.684 138.839 134.697 143.259 132.389C147.68 130.081 158.318 118.273 159.428 115.249C160.539 112.225 159.151 77.6268 158.457 74.3348C157.763 71.0429 141.08 59.1556 134.002 58.5841C126.924 58.0125 121.705 64.4879 121.705 64.4879Z" fill="#FEBFA0"/>
<path d="M136.917 134.097C134.744 134.109 132.586 133.727 130.539 132.968C127.868 131.883 112.691 119.431 111.15 116.226C109.61 113.021 109.013 79.8698 110.456 76.86C111.844 73.966 120.866 64.7847 121.428 64.2421C121.775 63.8152 126.979 57.6437 134.009 58.2225C140.872 58.7868 157.999 70.4642 158.776 74.2048C159.421 77.3159 160.858 112.225 159.727 115.329C158.54 118.585 147.77 130.385 143.391 132.693C141.365 133.672 139.15 134.152 136.917 134.097ZM133.1 58.9098C126.743 58.9098 121.997 64.6617 121.948 64.6979C121.851 64.7919 112.441 74.3422 111.102 77.135C109.762 79.9277 110.352 112.847 111.796 115.85C113.239 118.852 128.284 131.21 130.817 132.237C133.482 133.315 138.95 134.133 143.114 131.962C147.576 129.64 158.089 117.811 159.109 115.018C160.226 111.965 158.769 77.3954 158.124 74.3133C157.478 71.2311 140.942 59.5103 133.974 58.9532C133.69 58.9532 133.405 58.9098 133.121 58.9098H133.1Z" fill="#263238"/>
<path d="M129.2 58.5841C129.2 58.5841 143.482 72.1716 153.752 72.6925L164.029 73.2135C164.029 73.2135 141.476 70.0807 134.46 54.149C134.46 54.149 126.695 47.377 129.2 58.5841Z" fill="#263238"/>
<path d="M164.029 73.5751L153.759 73.0542C143.481 72.5333 129.575 59.4161 128.985 58.8517C128.935 58.8028 128.899 58.7401 128.881 58.6709C128.055 54.9665 128.235 52.796 129.436 52.0291C131.212 50.8932 134.356 53.5629 134.703 53.8668C134.745 53.9016 134.778 53.9462 134.8 53.997C141.656 69.5669 163.87 72.8082 164.092 72.8589C164.181 72.8698 164.263 72.9167 164.32 72.9897C164.377 73.0626 164.405 73.1558 164.397 73.2496C164.387 73.3423 164.343 73.4274 164.275 73.4878C164.206 73.5482 164.119 73.5794 164.029 73.5751ZM129.512 58.3815C130.678 59.4667 144.134 71.8242 153.8 72.3162L159.602 72.6129C152.662 70.7896 139.332 65.8915 134.21 54.3588C133.308 53.5846 130.928 51.9133 129.804 52.6296C129.165 53.0347 128.631 54.3515 129.512 58.3959V58.3815Z" fill="#263238"/>
<path d="M138.305 100.432C138.217 100.432 138.133 100.398 138.069 100.336C138.004 100.275 137.965 100.19 137.958 100.099L136.854 85.5493C136.851 85.5018 136.856 85.454 136.87 85.4087C136.884 85.3633 136.907 85.3213 136.936 85.285C136.966 85.2488 137.002 85.2189 137.043 85.1972C137.084 85.1755 137.128 85.1624 137.174 85.1586C137.219 85.1548 137.265 85.1604 137.308 85.1751C137.352 85.1898 137.392 85.2132 137.427 85.2441C137.462 85.275 137.49 85.3128 137.511 85.3552C137.532 85.3976 137.545 85.4439 137.548 85.4914L138.652 100.041C138.655 100.089 138.65 100.137 138.636 100.182C138.622 100.227 138.6 100.269 138.57 100.306C138.54 100.342 138.504 100.372 138.463 100.394C138.423 100.415 138.378 100.428 138.332 100.432H138.305Z" fill="#263238"/>
<path d="M135.106 107.348C133.176 107.348 131.331 105.178 131.254 105.062C131.222 105.027 131.196 104.985 131.18 104.94C131.163 104.894 131.156 104.845 131.158 104.796C131.16 104.748 131.171 104.7 131.191 104.656C131.212 104.612 131.24 104.572 131.275 104.54C131.31 104.508 131.351 104.483 131.396 104.468C131.44 104.453 131.487 104.447 131.534 104.451C131.581 104.455 131.626 104.469 131.667 104.492C131.709 104.515 131.745 104.547 131.775 104.585C131.775 104.585 133.496 106.625 135.106 106.625C136.431 106.625 138.437 103.933 139.103 102.899C139.127 102.859 139.159 102.824 139.197 102.797C139.235 102.771 139.277 102.752 139.322 102.742C139.366 102.733 139.412 102.733 139.457 102.742C139.502 102.752 139.544 102.771 139.582 102.798C139.658 102.851 139.711 102.933 139.729 103.026C139.747 103.12 139.729 103.217 139.679 103.297C139.415 103.709 137.035 107.348 135.106 107.348Z" fill="#263238"/>
<path d="M132.913 114.019C132.489 114.019 132.059 114.019 131.629 113.976C127.354 113.679 124.169 108.267 124.03 108.036C124.006 107.995 123.991 107.95 123.984 107.902C123.977 107.855 123.979 107.807 123.99 107.761C124.001 107.714 124.021 107.671 124.048 107.632C124.075 107.594 124.109 107.561 124.148 107.537C124.187 107.512 124.231 107.495 124.276 107.488C124.321 107.481 124.368 107.483 124.412 107.495C124.456 107.506 124.498 107.527 124.535 107.555C124.572 107.583 124.603 107.619 124.627 107.66C124.627 107.717 127.764 112.977 131.678 113.252C134.524 113.353 137.37 113.016 140.123 112.254C140.215 112.227 140.313 112.239 140.397 112.288C140.48 112.337 140.541 112.418 140.567 112.514C140.593 112.61 140.581 112.713 140.534 112.8C140.487 112.887 140.409 112.95 140.317 112.977C137.898 113.634 135.412 113.984 132.913 114.019Z" fill="#263238"/>
<path d="M138.839 83.2194C138.839 83.2194 143.697 79.4716 145.605 78.1549C147.513 76.8381 153.759 79.3052 153.759 79.3052C153.759 79.3052 149.061 76.5704 146.576 76.1363C144.092 75.7022 138.978 79.4499 138.561 81.2008C138.145 82.9517 136.917 82.4959 138.839 83.2194Z" fill="#263238"/>
<path d="M138.839 83.5522C138.8 83.5591 138.76 83.5591 138.721 83.5522C137.805 83.2122 137.534 83.1109 137.451 82.8287C137.436 82.7161 137.448 82.6013 137.487 82.495C137.526 82.3887 137.59 82.2945 137.673 82.221C137.945 81.918 138.136 81.5465 138.228 81.143C138.679 79.2546 143.919 75.3549 146.632 75.8324C149.151 76.2665 153.738 78.929 153.932 79.0375C154.008 79.0833 154.065 79.1566 154.092 79.2435C154.119 79.3304 154.114 79.4245 154.078 79.5078C154.041 79.591 153.976 79.6567 153.895 79.6916C153.814 79.7265 153.723 79.728 153.641 79.6959C151.955 79.0303 147.263 77.5254 145.799 78.5094C143.891 79.7828 139.096 83.5016 139.047 83.5378C138.98 83.5619 138.908 83.5669 138.839 83.5522ZM138.249 82.5755L138.783 82.7853C139.609 82.1414 143.69 79.0014 145.418 77.8438C146.41 77.1781 148.304 77.3735 150.053 77.7714C148.928 77.2008 147.742 76.7686 146.521 76.4836C144.224 76.0929 139.269 79.7249 138.887 81.2587C138.789 81.757 138.569 82.2204 138.249 82.6044V82.5755Z" fill="#263238"/>
<path d="M128.888 83.9069C128.634 83.2794 128.213 82.7412 127.674 82.3564C127.135 81.9716 126.501 81.7563 125.848 81.7363C123.503 81.5916 113.135 84.4784 114.932 84.4784C116.73 84.4784 124.19 84.3337 126.126 84.3337C127.065 84.3945 128.006 84.2491 128.888 83.9069Z" fill="#263238"/>
<path d="M114.933 84.8473C114.836 84.8614 114.737 84.8472 114.648 84.8064C114.558 84.7655 114.482 84.6995 114.426 84.6158C114.394 84.5549 114.377 84.4864 114.377 84.4168C114.377 84.3473 114.394 84.2788 114.426 84.2179C114.849 83.4944 123.933 81.2587 125.855 81.3817C126.576 81.4019 127.275 81.6395 127.869 82.0659C128.463 82.4922 128.925 83.089 129.2 83.7838C129.228 83.8669 129.227 83.9579 129.197 84.0402C129.166 84.1225 129.108 84.1907 129.034 84.2323C128.101 84.5974 127.107 84.7575 126.112 84.7026C125.127 84.7026 122.712 84.7026 120.338 84.775C117.965 84.8473 115.814 84.8473 114.933 84.8473ZM125.647 82.1052C123.898 82.1052 119.027 83.328 116.508 84.1093L120.345 84.0515C122.719 84.0153 125.14 83.9791 126.126 83.9791C126.895 83.9968 127.664 83.9043 128.409 83.7042C128.145 83.2272 127.767 82.8294 127.313 82.5493C126.858 82.2692 126.342 82.1162 125.814 82.1052H125.647Z" fill="#263238"/>
<path d="M152.656 92.1477C150.57 92.6408 148.437 92.8835 146.299 92.8712C143.523 92.7265 141.046 91.8583 142.135 93.1534C143.225 94.4485 145.452 95.6061 148.901 94.8826C152.35 94.1591 153.62 93.4428 152.656 92.1477Z" fill="#263238"/>
<path d="M127.646 92.1477C125.56 92.6408 123.427 92.8835 121.289 92.8712C118.513 92.7265 116.043 91.8583 117.125 93.1534C118.208 94.4485 120.442 95.6061 123.898 94.8826C127.354 94.1591 128.589 93.4428 127.646 92.1477Z" fill="#263238"/>
<path d="M81.6646 175.177C81.6646 175.177 85.8283 151.302 87.7158 148.965C89.6034 146.628 110.214 129.054 111.345 127.874C112.476 126.695 120.609 113.874 120.991 115.452C121.372 117.029 120.047 123.931 117.583 127.672C115.12 131.412 111.726 135.956 111.726 135.956C111.726 135.956 124.426 139.306 125.12 140.094C125.814 140.883 130.186 150.694 130.415 151.917C130.817 154.029 130.234 156.294 128.527 156.453C126.973 156.59 116.806 151.128 116.806 151.128L108.701 152.286C108.701 152.286 102.844 159.774 98.8676 161.156C97.0843 161.836 95.2508 162.363 93.3854 162.733L93.5797 177.319L81.6646 175.177Z" fill="#FEBFA0"/>
<path d="M93.5797 177.71H93.5172L81.6091 175.539C81.5167 175.521 81.4345 175.467 81.3801 175.387C81.3299 175.308 81.3101 175.213 81.3245 175.119C81.498 174.143 85.5229 151.15 87.4521 148.74C88.7151 147.156 97.9168 139.154 104.634 133.315C108.035 130.356 110.727 128.019 111.102 127.621C111.477 127.223 112.538 125.675 113.808 123.83C118.749 116.653 120.213 114.83 120.942 114.974C121.036 114.995 121.122 115.043 121.19 115.114C121.258 115.185 121.304 115.274 121.324 115.372C121.733 117.08 120.366 124.09 117.854 127.889C115.855 130.92 113.218 134.516 112.302 135.746C115.259 136.535 124.641 139.082 125.376 139.841C126.112 140.601 130.519 150.571 130.761 151.859C130.924 152.535 130.956 153.239 130.854 153.928C130.753 154.618 130.521 155.279 130.172 155.874C129.983 156.142 129.742 156.365 129.464 156.529C129.187 156.692 128.879 156.792 128.562 156.822C126.979 156.967 118.152 152.278 116.764 151.511L108.881 152.647C108.111 153.624 102.781 160.208 98.9786 161.525C97.266 162.156 95.5158 162.671 93.7393 163.066L93.9266 177.341C93.9259 177.394 93.9143 177.447 93.8928 177.496C93.8713 177.544 93.8403 177.587 93.8017 177.623C93.7384 177.676 93.6607 177.706 93.5797 177.71ZM82.0948 174.881L93.198 176.885L93.0106 162.733C93.0115 162.645 93.0428 162.559 93.0988 162.493C93.1549 162.427 93.2319 162.383 93.316 162.371C95.1602 162.004 96.9728 161.482 98.7357 160.808C102.559 159.477 108.347 152.126 108.402 152.054C108.459 151.984 108.538 151.938 108.624 151.924L116.792 150.773C116.861 150.76 116.933 150.773 116.993 150.81C120.893 152.901 127.486 156.2 128.527 156.091C128.748 156.071 128.963 156.001 129.155 155.886C129.348 155.771 129.515 155.614 129.644 155.426C129.935 154.913 130.126 154.346 130.206 153.756C130.286 153.166 130.253 152.565 130.109 151.989C129.859 150.687 125.536 140.999 124.911 140.348C124.322 139.805 116.459 137.577 111.65 136.303C111.595 136.288 111.543 136.259 111.501 136.218C111.459 136.178 111.427 136.127 111.409 136.07C111.39 136.013 111.385 135.953 111.395 135.894C111.404 135.835 111.428 135.779 111.463 135.732C111.463 135.681 114.884 131.159 117.306 127.469C119.728 123.779 120.866 117.579 120.699 115.785C119.644 116.595 116.258 121.522 114.377 124.25C113.038 126.196 111.983 127.73 111.602 128.128C111.22 128.526 108.631 130.776 105.085 133.865C98.7635 139.356 89.2147 147.662 87.9864 149.196C86.5083 151.041 83.2745 168.022 82.0948 174.881Z" fill="#263238"/>
<path d="M130.442 152.286C130.386 152.287 130.33 152.273 130.28 152.245C130.23 152.217 130.188 152.176 130.158 152.126C127.958 148.748 124.294 143.235 123.829 142.851C123.364 142.468 117.5 141.549 112.288 140.818C112.196 140.805 112.113 140.754 112.057 140.676C112.001 140.599 111.977 140.502 111.99 140.406C112.003 140.31 112.052 140.223 112.126 140.165C112.2 140.106 112.294 140.081 112.386 140.094C114.995 140.463 123.572 141.701 124.266 142.265C124.96 142.829 130.144 150.795 130.727 151.671C130.753 151.71 130.772 151.754 130.781 151.801C130.791 151.848 130.792 151.896 130.783 151.944C130.775 151.991 130.757 152.036 130.732 152.076C130.707 152.116 130.675 152.15 130.636 152.177C130.583 152.232 130.515 152.269 130.442 152.286Z" fill="#263238"/>
<path d="M129.977 155.274C129.927 155.274 129.877 155.262 129.831 155.239C129.786 155.217 129.746 155.184 129.714 155.143C128.229 153.356 125.259 149.833 124.641 149.29C124.141 148.871 118.284 147.308 113.017 146.049C112.928 146.027 112.851 145.968 112.803 145.887C112.755 145.806 112.74 145.708 112.76 145.615C112.77 145.568 112.789 145.524 112.815 145.486C112.842 145.447 112.875 145.414 112.914 145.389C112.953 145.364 112.996 145.347 113.041 145.34C113.087 145.333 113.133 145.335 113.177 145.347C115.016 145.781 124.28 148.017 125.085 148.74C125.89 149.464 130.061 154.456 130.241 154.673C130.271 154.708 130.294 154.75 130.309 154.795C130.324 154.839 130.329 154.887 130.326 154.934C130.323 154.981 130.311 155.027 130.29 155.069C130.27 155.112 130.241 155.149 130.206 155.18C130.144 155.24 130.062 155.274 129.977 155.274Z" fill="#263238"/>
<path d="M130.199 246.226C130.199 246.226 115.349 243.332 114.759 243.129C114.169 242.927 103.656 239.62 102.268 238.998C100.88 238.376 84.0517 235.286 83.2606 236.524C82.4695 237.761 81.6784 244.989 81.4772 245.604C81.2759 246.219 79.6937 249.113 80.0893 250.77C80.3029 252.273 80.3029 253.802 80.0893 255.306C80.0893 255.306 79.888 265.008 82.2613 265.218C84.6346 265.428 86.8206 256.131 86.8206 256.131C86.8206 256.131 90.1862 258.2 97.1118 258.612C104.037 259.025 110.776 255.516 110.776 255.516L129.207 260.088L130.199 246.226Z" fill="#FEBFA0"/>
<path d="M82.3586 265.58H82.2545C79.6868 265.355 79.7285 256.977 79.7562 255.299C79.9661 253.826 79.9661 252.329 79.7562 250.856C79.4093 249.409 80.3739 247.239 80.8943 246.103C81.0123 245.828 81.1094 245.611 81.1511 245.495C81.1927 245.379 81.3246 244.489 81.4495 243.592C81.9352 240.257 82.4141 237.189 82.9692 236.321C84.0101 234.7 101.387 238.209 102.4 238.665C103.413 239.121 109.929 241.212 113.045 242.21L114.842 242.782C115.293 242.934 124.301 244.714 130.241 245.871C130.326 245.887 130.401 245.935 130.454 246.006C130.507 246.077 130.532 246.165 130.526 246.255L129.554 260.088C129.551 260.141 129.538 260.192 129.514 260.238C129.49 260.285 129.456 260.325 129.415 260.356C129.375 260.388 129.329 260.41 129.279 260.42C129.23 260.43 129.179 260.428 129.131 260.414L110.838 255.906C109.908 256.362 103.566 259.365 97.1119 258.981C91.4493 258.641 88.16 257.23 87.0705 256.673C86.5153 258.909 84.6694 265.58 82.3586 265.58ZM84.6902 236.581C84.3012 236.539 83.9082 236.596 83.5452 236.748C83.0456 237.529 82.4626 241.545 82.1573 243.701C81.9838 244.924 81.8936 245.517 81.8311 245.719C81.7687 245.922 81.6785 246.096 81.5397 246.407C81.0956 247.405 80.1518 249.496 80.4502 250.683C80.675 252.232 80.675 253.807 80.4502 255.357C80.3739 259.206 80.9013 264.762 82.3169 264.856C83.8436 264.957 85.6895 259.524 86.4806 256.051C86.4945 255.996 86.5197 255.945 86.5544 255.901C86.5892 255.858 86.6327 255.822 86.6819 255.798C86.7304 255.773 86.7839 255.76 86.838 255.76C86.8921 255.76 86.9455 255.773 86.9941 255.798C86.9941 255.798 90.3875 257.824 97.1327 258.229C103.878 258.634 110.554 255.205 110.623 255.168C110.697 255.143 110.778 255.143 110.852 255.168L128.895 259.611L129.832 246.53C127.333 246.045 115.217 243.679 114.648 243.477L112.865 242.905C109.492 241.827 103.226 239.823 102.143 239.338C100.79 238.723 88.6041 236.581 84.6902 236.581Z" fill="#263238"/>
<path d="M78.8401 170.967L98.7495 174.765L98.007 187.737C98.007 187.737 102.414 189.908 103.753 202.721C105.092 215.535 108.93 245.213 107.972 247.412C107.014 249.612 101.074 259.206 87.2716 259.806C73.469 260.407 65.9952 247.217 64.6558 243.013C63.3165 238.81 70.4087 211.317 70.7903 208.922C71.172 206.527 73.0873 190.111 74.8152 187.34C75.8802 185.627 77.1696 184.078 78.6458 182.738L78.8401 170.967Z" fill="#464169"/>
<path d="M86.3556 260.197C72.6224 260.197 65.5371 246.819 64.3297 243.144C63.2471 239.765 67.2581 222.654 69.4094 213.48C69.9645 211.107 70.367 209.392 70.4503 208.886C70.5336 208.379 70.6307 207.62 70.7834 206.491C71.519 200.992 73.0596 189.546 74.5238 187.173C75.5771 185.475 76.8497 183.936 78.3058 182.601L78.4932 170.974C78.4931 170.921 78.5043 170.869 78.5259 170.822C78.5475 170.774 78.579 170.732 78.6181 170.699C78.6578 170.666 78.7038 170.643 78.7528 170.631C78.8019 170.618 78.853 170.617 78.9026 170.627L98.8328 174.418C98.9173 174.434 98.9932 174.482 99.0458 174.552C99.0983 174.623 99.1238 174.712 99.1173 174.801L98.3679 187.564C99.2908 188.186 102.906 191.304 104.1 202.714C104.433 205.912 104.933 210.224 105.488 214.79C107.521 232.385 109.02 245.98 108.319 247.593C108.264 247.709 102.941 259.517 87.3133 260.19L86.3556 260.197ZM79.1802 171.401L78.9928 182.76C78.9929 182.812 78.9817 182.864 78.9601 182.912C78.9385 182.96 78.907 183.001 78.8679 183.035C77.4204 184.352 76.1546 185.871 75.1067 187.549C73.7188 189.785 72.1435 201.557 71.4704 206.578C71.3177 207.714 71.1998 208.567 71.1304 208.994C71.0471 209.53 70.6446 211.252 70.0825 213.632C68.0978 222.104 63.9688 239.729 64.9889 242.919C66.1548 246.537 73.351 260.067 87.2577 259.452C99.8737 258.909 106.258 250.48 107.66 247.275C108.354 245.719 106.272 227.885 104.773 214.862C104.246 210.289 103.746 205.977 103.385 202.779C102.08 190.335 97.8682 188.099 97.8335 188.078C97.7724 188.045 97.7215 187.996 97.687 187.934C97.6525 187.872 97.6359 187.802 97.6392 187.73L98.3887 175.062L79.1802 171.401Z" fill="#263238"/>
<path d="M94.5859 186.515C93.4584 186.51 92.3322 186.435 91.2133 186.29C91.1223 186.279 91.0392 186.232 90.982 186.157C90.9248 186.082 90.8982 185.987 90.9079 185.892C90.9201 185.797 90.9675 185.71 91.0401 185.651C91.1127 185.591 91.2047 185.564 91.2965 185.574C92.388 185.713 93.4863 185.785 94.5859 185.791C94.6779 185.791 94.7661 185.829 94.8312 185.897C94.8963 185.965 94.9328 186.057 94.9328 186.153C94.9328 186.249 94.8963 186.341 94.8312 186.409C94.7661 186.477 94.6779 186.515 94.5859 186.515Z" fill="#263238"/>
<path d="M86.5708 185.458H86.4945C83.7971 184.835 81.137 184.047 78.5279 183.1C78.4439 183.065 78.3761 182.998 78.3389 182.912C78.3017 182.826 78.2981 182.729 78.3289 182.64C78.3596 182.552 78.4222 182.479 78.5035 182.438C78.5847 182.397 78.6781 182.39 78.7639 182.42C81.3431 183.357 83.9731 184.135 86.6402 184.749C86.685 184.76 86.7273 184.779 86.7648 184.806C86.8024 184.834 86.8343 184.869 86.8588 184.909C86.8833 184.95 86.9 184.995 86.9077 185.042C86.9154 185.089 86.9141 185.137 86.9039 185.184C86.8866 185.262 86.8441 185.332 86.7836 185.382C86.7231 185.432 86.648 185.459 86.5708 185.458Z" fill="#263238"/>
<path d="M188.408 177.485L186.43 230.743C186.43 230.743 184.251 230.953 183.46 231.98C182.933 232.692 182.468 233.453 182.072 234.252C182.072 234.252 162.079 235.077 152.572 237.971C147.116 239.589 141.814 241.73 136.736 244.366L128.02 244.171L126.237 268.112L137.923 268.524C137.923 268.524 143.662 272.033 169.796 274.515C195.93 276.997 208.012 277.612 210.781 274.305C213.549 270.999 214.743 265.84 215.139 263.163C215.534 260.486 220.288 243.961 220.288 220.013C220.288 196.065 198.706 161.409 193.952 153.544C189.199 145.68 184.237 146.309 180.885 147.149" fill="#464169"/>
<path d="M199.698 276.924C193.071 276.924 183.37 276.157 169.768 274.869C145.161 272.533 138.624 269.32 137.847 268.879L126.251 268.466C126.203 268.467 126.156 268.457 126.113 268.437C126.069 268.416 126.031 268.387 125.999 268.35C125.968 268.313 125.944 268.269 125.93 268.222C125.916 268.175 125.912 268.125 125.918 268.076L127.673 244.171C127.679 244.078 127.719 243.991 127.785 243.929C127.851 243.867 127.938 243.834 128.027 243.838L136.653 244.041C141.732 241.421 147.027 239.285 152.475 237.659C161.399 234.946 179.733 234.042 181.857 233.933C182.239 233.17 182.685 232.444 183.189 231.763C183.883 230.858 185.438 230.533 186.097 230.432L188.061 177.478C188.061 177.43 188.07 177.382 188.088 177.338C188.107 177.294 188.134 177.254 188.168 177.222C188.202 177.189 188.242 177.164 188.286 177.148C188.329 177.133 188.375 177.127 188.422 177.131C188.467 177.133 188.512 177.144 188.553 177.164C188.595 177.184 188.632 177.212 188.663 177.247C188.694 177.282 188.718 177.323 188.734 177.367C188.749 177.412 188.756 177.459 188.755 177.507L186.777 230.764C186.774 230.852 186.741 230.935 186.683 230.999C186.626 231.063 186.548 231.103 186.465 231.112C185.896 231.162 184.306 231.466 183.73 232.211C183.222 232.905 182.771 233.644 182.384 234.418C182.357 234.477 182.315 234.528 182.262 234.563C182.21 234.599 182.149 234.619 182.086 234.621C181.891 234.621 162.024 235.474 152.669 238.325C147.237 239.945 141.958 242.076 136.896 244.692C136.842 244.72 136.783 244.735 136.722 244.735L128.339 244.54L126.612 267.765L137.93 268.163C137.988 268.167 138.045 268.185 138.096 268.213C138.152 268.213 144.161 271.722 169.831 274.153C195.854 276.62 207.901 277.192 210.524 274.066C213.515 270.507 214.549 264.777 214.799 263.105C214.861 262.649 215.041 261.868 215.305 260.674C218.378 247.358 219.934 233.71 219.941 220.013C219.941 204.718 211.273 182.709 194.188 154.601L193.661 153.74C188.727 145.593 183.481 146.881 180.969 147.496C180.878 147.518 180.784 147.502 180.704 147.452C180.625 147.402 180.568 147.322 180.545 147.228C180.535 147.182 180.534 147.133 180.541 147.086C180.549 147.039 180.566 146.994 180.59 146.954C180.615 146.913 180.647 146.879 180.684 146.851C180.722 146.824 180.764 146.804 180.809 146.794C184.882 145.796 189.671 145.796 194.251 153.349L194.771 154.217C211.932 182.434 220.635 204.581 220.635 220.013C220.626 233.765 219.066 247.469 215.985 260.841C215.728 261.969 215.548 262.787 215.486 263.214C215.229 264.936 214.16 270.832 211.044 274.544C209.649 276.201 206.117 276.924 199.698 276.924Z" fill="#263238"/>
<path d="M186.43 231.105C186.369 231.106 186.309 231.089 186.257 231.058C186.204 231.026 186.161 230.979 186.132 230.924C186.091 230.853 186.076 230.77 186.087 230.688C186.098 230.606 186.136 230.531 186.194 230.475L197.679 219.333C197.711 219.299 197.748 219.273 197.79 219.254C197.832 219.236 197.876 219.227 197.922 219.227C197.967 219.227 198.012 219.236 198.053 219.254C198.095 219.273 198.133 219.299 198.165 219.333C198.197 219.367 198.223 219.407 198.241 219.451C198.258 219.495 198.267 219.542 198.267 219.59C198.267 219.638 198.258 219.685 198.241 219.729C198.223 219.773 198.197 219.813 198.165 219.847L187.755 229.976L198.505 226.72C198.597 226.693 198.695 226.706 198.778 226.754C198.862 226.803 198.923 226.885 198.949 226.981C198.975 227.077 198.963 227.179 198.916 227.266C198.869 227.353 198.791 227.417 198.699 227.444L186.548 231.119L186.43 231.105Z" fill="#263238"/>
<path d="M202.384 226.279C202.292 226.291 202.199 226.265 202.125 226.206C202.052 226.147 202.004 226.06 201.992 225.964C201.98 225.868 202.005 225.771 202.062 225.694C202.118 225.618 202.202 225.568 202.294 225.555L206.131 224.398C206.175 224.383 206.221 224.378 206.267 224.383C206.312 224.388 206.356 224.402 206.397 224.425C206.437 224.448 206.472 224.479 206.5 224.517C206.529 224.554 206.55 224.598 206.561 224.644C206.587 224.736 206.577 224.835 206.533 224.919C206.488 225.003 206.414 225.065 206.326 225.092L202.481 226.25C202.451 226.267 202.418 226.277 202.384 226.279Z" fill="#263238"/>
<path d="M199.893 237.71H199.768C194.73 235.684 182.176 234.643 182.044 234.635C181.999 234.632 181.954 234.618 181.914 234.597C181.873 234.575 181.837 234.545 181.807 234.509C181.777 234.473 181.755 234.431 181.741 234.385C181.727 234.34 181.721 234.292 181.725 234.245C181.729 234.197 181.741 234.151 181.762 234.108C181.783 234.066 181.812 234.028 181.846 233.997C181.881 233.966 181.921 233.943 181.965 233.928C182.008 233.914 182.054 233.908 182.1 233.912C182.62 233.955 194.882 234.975 200.018 237.03C200.063 237.039 200.107 237.057 200.146 237.083C200.185 237.109 200.218 237.143 200.245 237.182C200.271 237.222 200.29 237.266 200.3 237.314C200.309 237.361 200.31 237.41 200.302 237.457C200.294 237.505 200.277 237.55 200.252 237.591C200.227 237.631 200.194 237.666 200.156 237.694C200.118 237.721 200.075 237.741 200.03 237.751C199.985 237.761 199.938 237.762 199.893 237.754V237.71Z" fill="#263238"/>
<path d="M203.459 248.447C203.406 248.447 203.353 248.433 203.305 248.408C203.257 248.383 203.215 248.347 203.182 248.302C202.661 247.579 202.092 246.92 201.489 246.262C201.433 246.192 201.405 246.102 201.41 246.011C201.415 245.92 201.453 245.834 201.516 245.771C201.579 245.708 201.663 245.672 201.751 245.67C201.838 245.669 201.923 245.702 201.988 245.763C202.603 246.431 203.184 247.131 203.73 247.861C203.787 247.936 203.813 248.031 203.802 248.126C203.792 248.221 203.746 248.308 203.675 248.367C203.613 248.417 203.537 248.445 203.459 248.447Z" fill="#263238"/>
<path d="M199.317 244.041C199.237 244.039 199.159 244.011 199.095 243.961C195.571 240.986 191.506 238.786 187.145 237.493C187.099 237.482 187.056 237.462 187.018 237.434C186.98 237.405 186.948 237.37 186.923 237.328C186.898 237.287 186.881 237.241 186.873 237.193C186.866 237.145 186.867 237.096 186.878 237.048C186.888 237.001 186.907 236.956 186.935 236.916C186.962 236.876 186.996 236.843 187.036 236.817C187.075 236.791 187.119 236.773 187.166 236.765C187.212 236.757 187.259 236.759 187.304 236.77C191.77 238.084 195.932 240.332 199.539 243.375C199.595 243.422 199.636 243.487 199.656 243.559C199.675 243.632 199.673 243.709 199.648 243.78C199.624 243.851 199.579 243.912 199.519 243.955C199.46 243.998 199.389 244.02 199.317 244.019V244.041Z" fill="#263238"/>
<path d="M136.736 267.027C136.644 267.027 136.556 266.989 136.491 266.921C136.426 266.853 136.389 266.761 136.389 266.665L136.223 246.645C136.222 246.598 136.23 246.551 136.246 246.506C136.263 246.462 136.288 246.422 136.319 246.388C136.351 246.353 136.389 246.326 136.431 246.307C136.472 246.288 136.517 246.277 136.563 246.276C136.655 246.276 136.743 246.315 136.808 246.382C136.873 246.45 136.91 246.542 136.91 246.638L137.111 266.658C137.111 266.754 137.075 266.847 137.01 266.916C136.945 266.985 136.857 267.025 136.764 267.027H136.736Z" fill="#263238"/>
<path d="M135.348 262.071H127.021C126.929 262.071 126.841 262.033 126.776 261.965C126.711 261.897 126.674 261.805 126.674 261.709C126.674 261.613 126.711 261.521 126.776 261.453C126.841 261.385 126.929 261.347 127.021 261.347H135.348C135.441 261.347 135.529 261.385 135.594 261.453C135.659 261.521 135.695 261.613 135.695 261.709C135.694 261.804 135.657 261.895 135.592 261.963C135.527 262.03 135.44 262.069 135.348 262.071Z" fill="#263238"/>
<path d="M129.013 250.299C128.924 250.299 128.839 250.264 128.774 250.201C128.71 250.138 128.671 250.051 128.666 249.959C128.663 249.912 128.669 249.865 128.684 249.82C128.699 249.776 128.722 249.735 128.753 249.699C128.783 249.664 128.82 249.636 128.861 249.616C128.902 249.596 128.947 249.585 128.992 249.583L132.357 249.373C132.403 249.37 132.449 249.377 132.492 249.392C132.535 249.408 132.575 249.432 132.609 249.464C132.643 249.495 132.671 249.533 132.691 249.576C132.711 249.619 132.723 249.666 132.725 249.713C132.729 249.809 132.697 249.902 132.636 249.974C132.576 250.045 132.491 250.089 132.399 250.097L129.033 250.299H129.013Z" fill="#263238"/>
<rect x="93.8506" y="43.2195" width="77.2987" height="101.024" rx="4" fill="#D9D9D9" fill-opacity="0.37" stroke="#E8E9ED" stroke-width="2"/>
<path d="M177.5 52.5609V38.9999C177.5 37.8953 176.605 36.9999 175.5 36.9999H160.747" stroke="#E8E9ED" stroke-width="4"/>
<path d="M160.747 150.463H174.942C176.046 150.463 176.942 149.568 176.942 148.463V134.366" stroke="#E8E9ED" stroke-width="4"/>
<path d="M87.4999 135.439V149C87.4999 150.105 88.3954 151 89.4999 151H104.253" stroke="#E8E9ED" stroke-width="4"/>
<path d="M103.694 37L89.4999 37.14C88.3954 37.1509 87.5095 38.0551 87.5213 39.1596L87.6719 53.2565" stroke="#E8E9ED" stroke-width="4"/>
<path d="M102.5 127L163.5 127" stroke="#E8E9ED" stroke-width="2"/>
</svg>
